<svg width="53" height="19" viewBox="0 0 53 19" fill="none" xmlns="http://www.w3.org/2000/svg">
<rect x="1" y="1" width="51" height="17" rx="8.5" fill="#E3FAF8" stroke="#00C7B4"/>
<path d="M7.10893 13H6.27797L8.68137 6.45455H9.49956L11.903 13H11.072L9.11603 7.49006H9.0649L7.10893 13ZM7.41575 10.4432H10.7652V11.1463H7.41575V10.4432ZM14.8145 13.1023C14.3543 13.1023 13.958 12.9936 13.6256 12.7763C13.2932 12.5589 13.0376 12.2596 12.8586 11.8782C12.6796 11.4968 12.5901 11.0611 12.5901 10.571C12.5901 10.0724 12.6817 9.63246 12.865 9.25107C13.0503 8.86754 13.3081 8.56818 13.6384 8.35298C13.9708 8.13565 14.3586 8.02699 14.8018 8.02699C15.1469 8.02699 15.458 8.09091 15.735 8.21875C16.012 8.34659 16.2389 8.52557 16.4157 8.75568C16.5926 8.9858 16.7023 9.25426 16.7449 9.56108H15.9907C15.9331 9.33736 15.8053 9.1392 15.6072 8.96662C15.4111 8.7919 15.1469 8.70455 14.8145 8.70455C14.5205 8.70455 14.2627 8.78125 14.0411 8.93466C13.8216 9.08594 13.6501 9.30007 13.5265 9.57706C13.4051 9.85192 13.3444 10.1747 13.3444 10.5455C13.3444 10.9247 13.404 11.255 13.5233 11.5362C13.6448 11.8175 13.8153 12.0359 14.0347 12.1914C14.2563 12.3469 14.5162 12.4247 14.8145 12.4247C15.0106 12.4247 15.1885 12.3906 15.3483 12.3224C15.5081 12.2543 15.6434 12.1562 15.7542 12.0284C15.865 11.9006 15.9438 11.7472 15.9907 11.5682H16.7449C16.7023 11.858 16.5969 12.119 16.4285 12.3512C16.2623 12.5813 16.0418 12.7646 15.767 12.9009C15.4942 13.0352 15.1768 13.1023 14.8145 13.1023ZM19.8419 13.1023C19.3817 13.1023 18.9854 12.9936 18.653 12.7763C18.3206 12.5589 18.0649 12.2596 17.8859 11.8782C17.7069 11.4968 17.6175 11.0611 17.6175 10.571C17.6175 10.0724 17.7091 9.63246 17.8923 9.25107C18.0777 8.86754 18.3355 8.56818 18.6657 8.35298C18.9981 8.13565 19.3859 8.02699 19.8291 8.02699C20.1743 8.02699 20.4854 8.09091 20.7623 8.21875C21.0393 8.34659 21.2662 8.52557 21.4431 8.75568C21.6199 8.9858 21.7297 9.25426 21.7723 9.56108H21.018C20.9605 9.33736 20.8327 9.1392 20.6345 8.96662C20.4385 8.7919 20.1743 8.70455 19.8419 8.70455C19.5479 8.70455 19.29 8.78125 19.0684 8.93466C18.849 9.08594 18.6775 9.30007 18.5539 9.57706C18.4324 9.85192 18.3717 10.1747 18.3717 10.5455C18.3717 10.9247 18.4314 11.255 18.5507 11.5362C18.6721 11.8175 18.8426 12.0359 19.0621 12.1914C19.2836 12.3469 19.5436 12.4247 19.8419 12.4247C20.0379 12.4247 20.2158 12.3906 20.3756 12.3224C20.5354 12.2543 20.6707 12.1562 20.7815 12.0284C20.8923 11.9006 20.9711 11.7472 21.018 11.5682H21.7723C21.7297 11.858 21.6242 12.119 21.4559 12.3512C21.2897 12.5813 21.0692 12.7646 20.7943 12.9009C20.5216 13.0352 20.2041 13.1023 19.8419 13.1023ZM24.9332 13.1023C24.4601 13.1023 24.0521 12.9979 23.7091 12.7891C23.3682 12.5781 23.105 12.2841 22.9197 11.907C22.7364 11.5277 22.6448 11.0866 22.6448 10.5838C22.6448 10.081 22.7364 9.63778 22.9197 9.25426C23.105 8.86861 23.3628 8.56818 23.6931 8.35298C24.0255 8.13565 24.4133 8.02699 24.8564 8.02699C25.1121 8.02699 25.3646 8.0696 25.6139 8.15483C25.8632 8.24006 26.0901 8.37855 26.2947 8.57031C26.4992 8.75994 26.6622 9.01136 26.7836 9.32457C26.9051 9.63778 26.9658 10.0234 26.9658 10.4815V10.8011H23.1817V10.1491H26.1988C26.1988 9.87216 26.1434 9.625 26.0326 9.40767C25.9239 9.19034 25.7684 9.01882 25.566 8.89311C25.3657 8.7674 25.1292 8.70455 24.8564 8.70455C24.556 8.70455 24.2961 8.77912 24.0766 8.92827C23.8593 9.07528 23.692 9.26705 23.5748 9.50355C23.4577 9.74006 23.3991 9.99361 23.3991 10.2642V10.6989C23.3991 11.0696 23.463 11.3839 23.5908 11.6417C23.7208 11.8974 23.9008 12.0923 24.1309 12.2266C24.3611 12.3587 24.6285 12.4247 24.9332 12.4247C25.1313 12.4247 25.3103 12.397 25.4701 12.3416C25.632 12.2841 25.7716 12.1989 25.8888 12.0859C26.0059 11.9709 26.0965 11.8281 26.1604 11.6577L26.8891 11.8622C26.8124 12.1094 26.6835 12.3267 26.5024 12.5142C26.3213 12.6996 26.0976 12.8445 25.8312 12.9489C25.5649 13.0511 25.2655 13.1023 24.9332 13.1023ZM28.1132 14.8409V8.09091H28.8419V8.87074H28.9314C28.9868 8.78551 29.0635 8.67685 29.1615 8.54474C29.2616 8.41051 29.4044 8.29119 29.5898 8.18679C29.7773 8.08026 30.0308 8.02699 30.3504 8.02699C30.7638 8.02699 31.1281 8.13033 31.4434 8.337C31.7588 8.54368 32.0049 8.83665 32.1817 9.21591C32.3586 9.59517 32.447 10.0426 32.447 10.5582C32.447 11.0781 32.3586 11.5288 32.1817 11.9102C32.0049 12.2894 31.7599 12.5835 31.4466 12.7923C31.1334 12.9989 30.7723 13.1023 30.3632 13.1023C30.0479 13.1023 29.7954 13.0501 29.6057 12.9457C29.4161 12.8391 29.2702 12.7187 29.1679 12.5845C29.0656 12.4482 28.9868 12.3352 28.9314 12.2457H28.8675V14.8409H28.1132ZM28.8547 10.5455C28.8547 10.9162 28.909 11.2433 29.0177 11.5266C29.1263 11.8079 29.2851 12.0284 29.4939 12.1882C29.7027 12.3459 29.9584 12.4247 30.2609 12.4247C30.5763 12.4247 30.8394 12.3416 31.0503 12.1754C31.2634 12.0071 31.4232 11.7812 31.5297 11.4979C31.6384 11.2124 31.6927 10.8949 31.6927 10.5455C31.6927 10.2003 31.6395 9.8892 31.5329 9.61222C31.4285 9.3331 31.2698 9.11257 31.0567 8.95064C30.8458 8.78658 30.5805 8.70455 30.2609 8.70455C29.9541 8.70455 29.6963 8.78232 29.4875 8.93786C29.2787 9.09126 29.121 9.30646 29.0145 9.58345C28.9079 9.85831 28.8547 10.179 28.8547 10.5455ZM35.7325 8.09091V8.73011H33.1885V8.09091H35.7325ZM33.93 6.91477H34.6842V11.5938C34.6842 11.8068 34.7151 11.9666 34.7769 12.0732C34.8408 12.1776 34.9218 12.2479 35.0198 12.2841C35.1199 12.3182 35.2254 12.3352 35.3362 12.3352C35.4193 12.3352 35.4875 12.331 35.5407 12.3224C35.594 12.3118 35.6366 12.3033 35.6686 12.2969L35.822 12.9744C35.7709 12.9936 35.6995 13.0128 35.6079 13.032C35.5162 13.0533 35.4001 13.0639 35.2595 13.0639C35.0464 13.0639 34.8376 13.0181 34.6331 12.9265C34.4307 12.8349 34.2623 12.6953 34.1281 12.5078C33.996 12.3203 33.93 12.0838 33.93 11.7983V6.91477ZM38.8726 13.1023C38.3996 13.1023 37.9916 12.9979 37.6485 12.7891C37.3076 12.5781 37.0445 12.2841 36.8591 11.907C36.6759 11.5277 36.5843 11.0866 36.5843 10.5838C36.5843 10.081 36.6759 9.63778 36.8591 9.25426C37.0445 8.86861 37.3023 8.56818 37.6325 8.35298C37.9649 8.13565 38.3527 8.02699 38.7959 8.02699C39.0516 8.02699 39.3041 8.0696 39.5534 8.15483C39.8026 8.24006 40.0296 8.37855 40.2341 8.57031C40.4387 8.75994 40.6017 9.01136 40.7231 9.32457C40.8445 9.63778 40.9053 10.0234 40.9053 10.4815V10.8011H37.1212V10.1491H40.1382C40.1382 9.87216 40.0828 9.625 39.972 9.40767C39.8634 9.19034 39.7078 9.01882 39.5054 8.89311C39.3051 8.7674 39.0686 8.70455 38.7959 8.70455C38.4955 8.70455 38.2355 8.77912 38.0161 8.92827C37.7987 9.07528 37.6315 9.26705 37.5143 9.50355C37.3971 9.74006 37.3385 9.99361 37.3385 10.2642V10.6989C37.3385 11.0696 37.4024 11.3839 37.5303 11.6417C37.6602 11.8974 37.8403 12.0923 38.0704 12.2266C38.3005 12.3587 38.5679 12.4247 38.8726 12.4247C39.0708 12.4247 39.2497 12.397 39.4095 12.3416C39.5715 12.2841 39.711 12.1989 39.8282 12.0859C39.9454 11.9709 40.036 11.8281 40.0999 11.6577L40.8286 11.8622C40.7519 12.1094 40.623 12.3267 40.4419 12.5142C40.2607 12.6996 40.037 12.8445 39.7707 12.9489C39.5044 13.0511 39.205 13.1023 38.8726 13.1023ZM43.9063 13.1023C43.4972 13.1023 43.1361 12.9989 42.8229 12.7923C42.5097 12.5835 42.2646 12.2894 42.0878 11.9102C41.911 11.5288 41.8225 11.0781 41.8225 10.5582C41.8225 10.0426 41.911 9.59517 42.0878 9.21591C42.2646 8.83665 42.5107 8.54368 42.8261 8.337C43.1414 8.13033 43.5058 8.02699 43.9191 8.02699C44.2387 8.02699 44.4912 8.08026 44.6766 8.18679C44.8641 8.29119 45.0068 8.41051 45.1048 8.54474C45.205 8.67685 45.2828 8.78551 45.3382 8.87074H45.4021V6.45455H46.1563V13H45.4276V12.2457H45.3382C45.2828 12.3352 45.2039 12.4482 45.1017 12.5845C44.9994 12.7187 44.8534 12.8391 44.6638 12.9457C44.4742 13.0501 44.2217 13.1023 43.9063 13.1023ZM44.0086 12.4247C44.3112 12.4247 44.5669 12.3459 44.7757 12.1882C44.9845 12.0284 45.1432 11.8079 45.2519 11.5266C45.3605 11.2433 45.4149 10.9162 45.4149 10.5455C45.4149 10.179 45.3616 9.85831 45.2551 9.58345C45.1485 9.30646 44.9909 9.09126 44.782 8.93786C44.5732 8.78232 44.3154 8.70455 44.0086 8.70455C43.689 8.70455 43.4227 8.78658 43.2096 8.95064C42.9987 9.11257 42.8399 9.3331 42.7334 9.61222C42.629 9.8892 42.5768 10.2003 42.5768 10.5455C42.5768 10.8949 42.6301 11.2124 42.7366 11.4979C42.8453 11.7812 43.0051 12.0071 43.216 12.1754C43.4291 12.3416 43.6933 12.4247 44.0086 12.4247Z" fill="#00C7B4"/>
</svg>
