<svg width="430" height="932" viewBox="0 0 430 932" fill="none" xmlns="http://www.w3.org/2000/svg">
<g clip-path="url(#clip0_632_31447)">
<path fill-rule="evenodd" clip-rule="evenodd" d="M0 0H430V189V932H0V189V0Z" fill="white"/>
<path fill-rule="evenodd" clip-rule="evenodd" d="M0 0H430V170V189V189.76C390.126 211.247 307.706 226 212.5 226C121.112 226 41.5044 212.406 0 192.312V189V170V0Z" fill="#053665"/>
<path fill-rule="evenodd" clip-rule="evenodd" d="M206.574 18.0189C212.351 18.0189 218.058 18.2408 223.714 18.6617L242.176 45.1814C168.607 30.9261 101.28 54.4252 46.9425 86.2807C67.1991 64.4096 91.89 47.0232 119.399 35.2599C146.908 23.4965 176.615 17.6213 206.574 18.0189ZM402.956 181.847C388.48 118.221 340.366 65.7111 276.628 40.7728C332.057 87.3387 368.595 142.278 378.264 205.739L402.956 181.847ZM414.44 222.804C413.806 256.162 404.607 288.811 387.711 317.672C370.816 346.534 346.78 370.658 317.869 387.77L288.113 376.194C350.128 338.411 394.664 284.24 414.44 222.804ZM270.886 428.084C251.79 435.266 231.536 438.953 211.11 438.966C164.571 438.458 120.078 419.939 87.1373 387.366V347.951C128.814 393.197 191.38 426.344 270.886 428.084ZM1.00524 225.745C0.745956 264.351 10.1193 302.422 28.2919 336.574C13.2877 262.322 14.6428 201.097 41.2003 143.166L13.1212 149.946C5.03374 174.412 0.943556 200.001 1.00524 225.745Z" fill="white" fill-opacity="0.02"/>
<path fill-rule="evenodd" clip-rule="evenodd" d="M0 97.7388C8.84717 101.137 18.4561 103 28.5 103C72.4066 103 108 67.4065 108 23.5C108 15.3193 106.764 7.427 104.469 0H0V97.7388Z" fill="white" fill-opacity="0.02"/>
<path d="M102.865 887H98.6166V886.343L100.3 884.642C100.624 884.318 100.897 884.03 101.119 883.778C101.341 883.526 101.509 883.28 101.623 883.04C101.737 882.794 101.794 882.527 101.794 882.239C101.794 881.885 101.689 881.618 101.479 881.438C101.269 881.252 100.996 881.159 100.66 881.159C100.348 881.159 100.072 881.213 99.8316 881.321C99.5976 881.429 99.3576 881.579 99.1116 881.771L98.6886 881.24C98.8566 881.096 99.0396 880.967 99.2376 880.853C99.4416 880.739 99.6606 880.649 99.8946 880.583C100.135 880.517 100.39 880.484 100.66 880.484C101.062 880.484 101.407 880.553 101.695 880.691C101.983 880.829 102.205 881.027 102.361 881.285C102.523 881.537 102.604 881.84 102.604 882.194C102.604 882.446 102.565 882.686 102.487 882.914C102.409 883.136 102.298 883.355 102.154 883.571C102.01 883.787 101.836 884.006 101.632 884.228C101.428 884.45 101.203 884.681 100.957 884.921L99.6156 886.244V886.28H102.865V887ZM108.042 883.778C108.042 884.3 108.003 884.765 107.925 885.173C107.847 885.581 107.721 885.929 107.547 886.217C107.379 886.499 107.157 886.715 106.881 886.865C106.611 887.015 106.284 887.09 105.9 887.09C105.42 887.09 105.021 886.958 104.703 886.694C104.391 886.43 104.157 886.052 104.001 885.56C103.851 885.062 103.776 884.468 103.776 883.778C103.776 883.082 103.845 882.488 103.983 881.996C104.127 881.504 104.355 881.129 104.667 880.871C104.979 880.607 105.39 880.475 105.9 880.475C106.38 880.475 106.779 880.607 107.097 880.871C107.415 881.129 107.652 881.504 107.808 881.996C107.964 882.488 108.042 883.082 108.042 883.778ZM104.568 883.778C104.568 884.366 104.61 884.855 104.694 885.245C104.784 885.635 104.925 885.929 105.117 886.127C105.315 886.319 105.576 886.415 105.9 886.415C106.224 886.415 106.482 886.319 106.674 886.127C106.872 885.935 107.016 885.644 107.106 885.254C107.196 884.858 107.241 884.366 107.241 883.778C107.241 883.19 107.196 882.704 107.106 882.32C107.016 881.93 106.872 881.639 106.674 881.447C106.482 881.249 106.224 881.15 105.9 881.15C105.576 881.15 105.315 881.249 105.117 881.447C104.925 881.639 104.784 881.93 104.694 882.32C104.61 882.704 104.568 883.19 104.568 883.778ZM113.165 887H108.917V886.343L110.6 884.642C110.924 884.318 111.197 884.03 111.419 883.778C111.641 883.526 111.809 883.28 111.923 883.04C112.037 882.794 112.094 882.527 112.094 882.239C112.094 881.885 111.989 881.618 111.779 881.438C111.569 881.252 111.296 881.159 110.96 881.159C110.648 881.159 110.372 881.213 110.132 881.321C109.898 881.429 109.658 881.579 109.412 881.771L108.989 881.24C109.157 881.096 109.34 880.967 109.538 880.853C109.742 880.739 109.961 880.649 110.195 880.583C110.435 880.517 110.69 880.484 110.96 880.484C111.362 880.484 111.707 880.553 111.995 880.691C112.283 880.829 112.505 881.027 112.661 881.285C112.823 881.537 112.904 881.84 112.904 882.194C112.904 882.446 112.865 882.686 112.787 882.914C112.709 883.136 112.598 883.355 112.454 883.571C112.31 883.787 112.136 884.006 111.932 884.228C111.728 884.45 111.503 884.681 111.257 884.921L109.916 886.244V886.28H113.165V887ZM116.831 887H116.057V882.509C116.057 882.335 116.057 882.188 116.057 882.068C116.063 881.948 116.069 881.837 116.075 881.735C116.081 881.627 116.087 881.516 116.093 881.402C115.997 881.498 115.91 881.579 115.832 881.645C115.754 881.711 115.655 881.795 115.535 881.897L114.851 882.455L114.437 881.924L116.174 880.574H116.831V887ZM122.205 884.939V884.237H124.383V884.939H122.205ZM129.386 886.297C129.418 886.297 129.434 886.309 129.434 886.332V886.956C129.434 886.985 129.418 887 129.386 887H127.76C127.73 887 127.716 886.985 127.716 886.956V886.332C127.716 886.309 127.73 886.297 127.76 886.297H129.386ZM132.853 886.297V885.247C132.853 884.804 132.767 884.48 132.594 884.275C132.424 884.07 132.17 883.968 131.833 883.968C131.529 883.968 131.29 884.062 131.117 884.249C130.947 884.434 130.862 884.697 130.862 885.04C130.862 885.424 130.978 885.73 131.209 885.958C131.441 886.184 131.743 886.297 132.115 886.297H132.853ZM129.298 887C129.269 887 129.254 886.985 129.254 886.956V886.332C129.254 886.309 129.269 886.297 129.298 886.297H130.691C130.5 886.177 130.348 886.002 130.234 885.774C130.12 885.545 130.062 885.291 130.062 885.009C130.062 884.643 130.143 884.322 130.304 884.047C130.465 883.769 130.684 883.555 130.959 883.405C131.237 883.253 131.541 883.177 131.869 883.177C133.035 883.177 133.618 883.821 133.618 885.11V886.297H134.795V884.535C134.795 883.717 134.611 883.115 134.242 882.729C133.873 882.342 133.292 882.148 132.501 882.148C131.918 882.148 131.363 882.236 130.836 882.412L130.629 881.718C131.192 881.53 131.816 881.437 132.501 881.437C133.48 881.437 134.234 881.702 134.765 882.232C135.295 882.759 135.56 883.502 135.56 884.46V887H129.298ZM142.583 887H141.809V882.509C141.809 882.335 141.809 882.188 141.809 882.068C141.815 881.948 141.821 881.837 141.827 881.735C141.833 881.627 141.839 881.516 141.845 881.402C141.749 881.498 141.662 881.579 141.584 881.645C141.506 881.711 141.407 881.795 141.287 881.897L140.603 882.455L140.189 881.924L141.926 880.574H142.583V887ZM149.506 885.542H148.57V887H147.805V885.542H144.727V884.867L147.751 880.538H148.57V884.831H149.506V885.542ZM147.805 882.806C147.805 882.65 147.805 882.509 147.805 882.383C147.811 882.251 147.817 882.128 147.823 882.014C147.829 881.9 147.832 881.792 147.832 881.69C147.838 881.582 147.844 881.48 147.85 881.384H147.814C147.766 881.498 147.706 881.621 147.634 881.753C147.562 881.885 147.493 881.996 147.427 882.086L145.501 884.831H147.805V882.806ZM154.656 885.542H153.72V887H152.955V885.542H149.877V884.867L152.901 880.538H153.72V884.831H154.656V885.542ZM152.955 882.806C152.955 882.65 152.955 882.509 152.955 882.383C152.961 882.251 152.967 882.128 152.973 882.014C152.979 881.9 152.982 881.792 152.982 881.69C152.988 881.582 152.994 881.48 153 881.384H152.964C152.916 881.498 152.856 881.621 152.784 881.753C152.712 881.885 152.643 881.996 152.577 882.086L150.651 884.831H152.955V882.806ZM159.276 882.077C159.276 882.365 159.222 882.614 159.114 882.824C159.006 883.034 158.85 883.205 158.646 883.337C158.448 883.469 158.214 883.562 157.944 883.616V883.652C158.46 883.712 158.844 883.874 159.096 884.138C159.348 884.402 159.474 884.747 159.474 885.173C159.474 885.545 159.387 885.878 159.213 886.172C159.039 886.46 158.769 886.685 158.403 886.847C158.043 887.009 157.578 887.09 157.008 887.09C156.672 887.09 156.36 887.063 156.072 887.009C155.784 886.961 155.508 886.871 155.244 886.739V886.001C155.514 886.133 155.805 886.238 156.117 886.316C156.429 886.388 156.729 886.424 157.017 886.424C157.593 886.424 158.007 886.313 158.259 886.091C158.517 885.863 158.646 885.551 158.646 885.155C158.646 884.885 158.574 884.669 158.43 884.507C158.292 884.339 158.088 884.216 157.818 884.138C157.548 884.06 157.224 884.021 156.846 884.021H156.225V883.346H156.855C157.209 883.346 157.503 883.295 157.737 883.193C157.977 883.091 158.157 882.95 158.277 882.77C158.403 882.584 158.466 882.371 158.466 882.131C158.466 881.819 158.361 881.579 158.151 881.411C157.941 881.237 157.656 881.15 157.296 881.15C157.068 881.15 156.861 881.174 156.675 881.222C156.489 881.264 156.315 881.327 156.153 881.411C155.997 881.489 155.838 881.582 155.676 881.69L155.28 881.15C155.436 881.03 155.613 880.919 155.811 880.817C156.015 880.715 156.24 880.634 156.486 880.574C156.732 880.514 156.999 880.484 157.287 880.484C157.959 880.484 158.457 880.634 158.781 880.934C159.111 881.234 159.276 881.615 159.276 882.077ZM165.917 887C165.197 887 164.636 886.818 164.234 886.455C163.833 886.089 163.632 885.578 163.632 884.921C163.632 884.212 163.855 883.654 164.3 883.247C164.746 882.84 165.345 882.636 166.098 882.636H166.691V882.069H167.46V886.297H168.484C168.513 886.297 168.528 886.309 168.528 886.332V886.956C168.528 886.985 168.513 887 168.484 887H165.917ZM166.691 886.297V883.335H166.124C165.585 883.335 165.167 883.474 164.872 883.752C164.579 884.028 164.432 884.415 164.432 884.913C164.432 885.361 164.56 885.704 164.814 885.941C165.069 886.178 165.431 886.297 165.9 886.297H166.691ZM165.452 881.239C165.311 881.239 165.191 881.196 165.091 881.111C164.995 881.026 164.946 880.889 164.946 880.698C164.946 880.508 164.995 880.37 165.091 880.285C165.191 880.2 165.311 880.158 165.452 880.158C165.604 880.158 165.726 880.205 165.816 880.298C165.907 880.389 165.953 880.522 165.953 880.698C165.953 880.871 165.907 881.004 165.816 881.098C165.729 881.192 165.607 881.239 165.452 881.239ZM167.007 881.239C166.852 881.239 166.729 881.192 166.638 881.098C166.547 881.004 166.502 880.871 166.502 880.698C166.502 880.525 166.546 880.392 166.634 880.298C166.725 880.205 166.849 880.158 167.007 880.158C167.168 880.158 167.293 880.208 167.381 880.307C167.469 880.404 167.513 880.534 167.513 880.698C167.513 880.862 167.469 880.994 167.381 881.094C167.293 881.19 167.168 881.239 167.007 881.239ZM168.4 887C168.371 887 168.356 886.985 168.356 886.956V886.332C168.356 886.309 168.371 886.297 168.4 886.297H170.127V882.636H170.927V887H168.4ZM168.985 888.802C168.844 888.802 168.724 888.759 168.625 888.674C168.528 888.589 168.479 888.452 168.479 888.261C168.479 888.071 168.528 887.933 168.625 887.848C168.724 887.763 168.844 887.721 168.985 887.721C169.137 887.721 169.259 887.766 169.35 887.857C169.44 887.951 169.486 888.085 169.486 888.261C169.486 888.434 169.44 888.567 169.35 888.661C169.262 888.755 169.14 888.802 168.985 888.802ZM170.541 888.802C170.385 888.802 170.262 888.755 170.171 888.661C170.081 888.567 170.035 888.434 170.035 888.261C170.035 888.088 170.079 887.955 170.167 887.861C170.258 887.768 170.382 887.721 170.541 887.721C170.702 887.721 170.826 887.769 170.914 887.866C171.002 887.965 171.046 888.097 171.046 888.261C171.046 888.425 171.002 888.556 170.914 888.652C170.826 888.752 170.702 888.802 170.541 888.802ZM172.711 880.162H173.511V886.297H174.698C174.73 886.297 174.746 886.309 174.746 886.332V886.956C174.746 886.985 174.73 887 174.698 887H172.711V880.162ZM174.614 887C174.585 887 174.57 886.985 174.57 886.956V886.332C174.57 886.309 174.585 886.297 174.614 886.297H175.73C175.508 885.717 175.396 885.204 175.396 884.759C175.396 884.223 175.505 883.745 175.722 883.326C175.941 883.142 176.193 882.995 176.478 882.887C176.762 882.778 177.058 882.724 177.365 882.724C177.74 882.724 178.07 882.808 178.354 882.975C178.638 883.139 178.856 883.373 179.009 883.678C179.161 883.982 179.237 884.328 179.237 884.715C179.237 885.099 179.174 885.452 179.048 885.774C179.177 885.97 179.321 886.106 179.479 886.183C179.64 886.259 179.851 886.297 180.112 886.297H180.156C180.188 886.297 180.204 886.309 180.204 886.332V886.956C180.204 886.985 180.188 887 180.156 887H180.112C179.792 887 179.52 886.956 179.294 886.868C179.069 886.78 178.852 886.629 178.644 886.416C178.454 886.615 178.231 886.763 177.976 886.859C177.724 886.953 177.46 887 177.185 887H174.614ZM176.205 884.605C176.205 884.883 176.23 885.157 176.28 885.427C176.33 885.693 176.419 885.983 176.548 886.297H177.185C177.586 886.297 177.894 886.161 178.108 885.888C178.322 885.616 178.429 885.222 178.429 884.706C178.429 884.328 178.325 884.019 178.117 883.779C177.912 883.539 177.661 883.418 177.365 883.418C177.175 883.418 176.987 883.452 176.803 883.52C176.621 883.587 176.458 883.676 176.315 883.788C176.265 883.914 176.234 884.042 176.223 884.174C176.211 884.303 176.205 884.447 176.205 884.605ZM180.072 887C180.043 887 180.028 886.985 180.028 886.956V886.332C180.028 886.309 180.043 886.297 180.072 886.297H183.931C183.699 886.065 183.51 885.516 183.364 884.649C183.279 884.139 183.151 883.779 182.981 883.568C182.812 883.354 182.561 883.247 182.23 883.247C181.814 883.247 181.379 883.367 180.925 883.607L180.613 882.988C180.871 882.821 181.13 882.705 181.391 882.641C181.654 882.576 181.937 882.544 182.239 882.544C182.605 882.544 182.911 882.61 183.157 882.742C183.403 882.874 183.598 883.07 183.742 883.331C183.888 883.588 184 883.959 184.076 884.442C184.213 885.383 184.43 886.001 184.726 886.297H185.328C185.357 886.297 185.372 886.309 185.372 886.332V886.956C185.372 886.985 185.357 887 185.328 887H180.072ZM185.24 887C185.211 887 185.196 886.985 185.196 886.956V886.332C185.196 886.309 185.211 886.297 185.24 886.297H186.427V880.162H187.227V887H185.24ZM189.033 880.162H189.833V887H189.033V880.162ZM192.939 889.162C192.327 889.162 191.787 889.008 191.318 888.701L191.678 888.099C191.872 888.201 192.071 888.286 192.276 888.354C192.481 888.424 192.708 888.459 192.957 888.459C193.364 888.459 193.684 888.349 193.915 888.129C194.146 887.913 194.262 887.623 194.262 887.259V887H193.379C192.74 887 192.245 886.824 191.894 886.473C191.545 886.121 191.371 885.613 191.371 884.948C191.371 884.242 191.595 883.681 192.043 883.265C192.491 882.846 193.09 882.636 193.84 882.636H195.018V887.215C195.018 887.828 194.836 888.305 194.473 888.648C194.113 888.991 193.602 889.162 192.939 889.162ZM194.253 886.297V883.335H193.867C193.333 883.335 192.917 883.476 192.619 883.757C192.323 884.038 192.175 884.432 192.175 884.939C192.175 885.408 192.276 885.752 192.478 885.972C192.683 886.188 192.992 886.297 193.405 886.297H194.253ZM204.128 887C204.119 887.712 203.935 888.25 203.574 888.613C203.214 888.979 202.651 889.162 201.887 889.162H201.241C200.678 889.162 200.236 888.967 199.914 888.578C199.591 888.188 199.43 887.659 199.43 886.991C199.43 886.273 199.553 885.61 199.799 885H200.546C200.341 885.519 200.239 886.165 200.239 886.938C200.239 887.425 200.34 887.8 200.542 888.063C200.744 888.327 201.034 888.459 201.412 888.459H201.852C202.373 888.459 202.755 888.34 202.999 888.103C203.242 887.866 203.363 887.504 203.363 887.018V882.636H204.128V886.297H205.117C205.149 886.297 205.165 886.309 205.165 886.332V886.956C205.165 886.985 205.149 887 205.117 887H204.128ZM201.799 882.632C201.644 882.632 201.521 882.585 201.43 882.491C201.339 882.397 201.293 882.264 201.293 882.091C201.293 881.918 201.337 881.785 201.425 881.691C201.516 881.598 201.641 881.551 201.799 881.551C201.96 881.551 202.084 881.601 202.172 881.7C202.26 881.797 202.304 881.927 202.304 882.091C202.304 882.255 202.26 882.387 202.172 882.487C202.084 882.583 201.96 882.632 201.799 882.632ZM205.033 887C205.004 887 204.989 886.985 204.989 886.956V886.332C204.989 886.309 205.004 886.297 205.033 886.297H206.149C205.927 885.717 205.815 885.204 205.815 884.759C205.815 884.223 205.924 883.745 206.141 883.326C206.36 883.142 206.612 882.995 206.896 882.887C207.181 882.778 207.477 882.724 207.784 882.724C208.159 882.724 208.489 882.808 208.773 882.975C209.057 883.139 209.275 883.373 209.428 883.678C209.58 883.982 209.656 884.328 209.656 884.715C209.656 885.187 209.57 885.594 209.397 885.937C209.227 886.279 208.985 886.543 208.672 886.728C208.361 886.909 208.005 887 207.604 887H205.033ZM206.624 884.605C206.624 884.883 206.649 885.157 206.699 885.427C206.749 885.693 206.838 885.983 206.967 886.297H207.604C208.005 886.297 208.313 886.161 208.527 885.888C208.741 885.616 208.848 885.222 208.848 884.706C208.848 884.328 208.744 884.019 208.536 883.779C208.331 883.539 208.08 883.418 207.784 883.418C207.594 883.418 207.406 883.452 207.222 883.52C207.04 883.587 206.877 883.676 206.734 883.788C206.684 883.914 206.653 884.042 206.642 884.174C206.63 884.303 206.624 884.447 206.624 884.605ZM210.649 886.297H212.667L211.506 881.375H212.341L213.501 886.297H214.701V880.162H215.501V886.297H216.67C216.702 886.297 216.718 886.309 216.718 886.332V886.956C216.718 886.985 216.702 887 216.67 887H210.649V886.297ZM210.865 880.202L211.291 880.14C211.08 880.002 210.975 879.812 210.975 879.569C210.975 879.311 211.058 879.112 211.225 878.971C211.395 878.831 211.618 878.76 211.893 878.76C212.127 878.76 212.325 878.806 212.486 878.896L212.35 879.301C212.23 879.228 212.081 879.191 211.902 879.191C211.77 879.191 211.659 879.229 211.568 879.305C211.477 879.378 211.432 879.494 211.432 879.652C211.432 879.755 211.458 879.843 211.511 879.916C211.563 879.986 211.628 880.039 211.704 880.074C211.763 880.06 211.906 880.038 212.135 880.008C212.363 879.976 212.52 879.96 212.605 879.96V880.399C212.558 880.399 212.451 880.408 212.284 880.426C212.12 880.44 211.815 880.477 211.37 880.536L210.865 880.615V880.202ZM216.582 887C216.553 887 216.538 886.985 216.538 886.956V886.332C216.538 886.309 216.553 886.297 216.582 886.297H217.769V880.162H218.568V887H216.582ZM225.402 887C224.681 887 224.12 886.818 223.719 886.455C223.317 886.089 223.117 885.578 223.117 884.921C223.117 884.212 223.339 883.654 223.785 883.247C224.23 882.84 224.829 882.636 225.582 882.636H226.175V882.069H226.944V886.297H227.968C227.998 886.297 228.012 886.309 228.012 886.332V886.956C228.012 886.985 227.998 887 227.968 887H225.402ZM226.175 886.297V883.335H225.608C225.069 883.335 224.652 883.474 224.356 883.752C224.063 884.028 223.917 884.415 223.917 884.913C223.917 885.361 224.044 885.704 224.299 885.941C224.554 886.178 224.916 886.297 225.384 886.297H226.175ZM224.936 881.239C224.795 881.239 224.675 881.196 224.576 881.111C224.479 881.026 224.431 880.889 224.431 880.698C224.431 880.508 224.479 880.37 224.576 880.285C224.675 880.2 224.795 880.158 224.936 880.158C225.088 880.158 225.21 880.205 225.301 880.298C225.392 880.389 225.437 880.522 225.437 880.698C225.437 880.871 225.392 881.004 225.301 881.098C225.213 881.192 225.091 881.239 224.936 881.239ZM226.492 881.239C226.336 881.239 226.213 881.192 226.123 881.098C226.032 881.004 225.986 880.871 225.986 880.698C225.986 880.525 226.03 880.392 226.118 880.298C226.209 880.205 226.333 880.158 226.492 880.158C226.653 880.158 226.777 880.208 226.865 880.307C226.953 880.404 226.997 880.534 226.997 880.698C226.997 880.862 226.953 880.994 226.865 881.094C226.777 881.19 226.653 881.239 226.492 881.239ZM227.885 887C227.855 887 227.841 886.985 227.841 886.956V886.332C227.841 886.309 227.855 886.297 227.885 886.297H228.983V882.904H229.748V884.57C230.029 883.899 230.382 883.394 230.807 883.054C231.232 882.714 231.709 882.544 232.24 882.544C232.919 882.544 233.432 882.729 233.778 883.098C234.126 883.467 234.301 884.044 234.301 884.829V887H227.885ZM233.536 886.297V884.869C233.536 884.315 233.415 883.908 233.171 883.647C232.931 883.386 232.566 883.256 232.077 883.256C231.154 883.256 230.378 884.023 229.748 885.559V886.297H233.536ZM235.878 880.162H236.678V886.297H237.865C237.897 886.297 237.913 886.309 237.913 886.332V886.956C237.913 886.985 237.897 887 237.865 887H235.878V880.162ZM237.781 887C237.752 887 237.737 886.985 237.737 886.956V886.332C237.737 886.309 237.752 886.297 237.781 886.297H241.64C241.408 886.065 241.219 885.516 241.073 884.649C240.988 884.139 240.86 883.779 240.69 883.568C240.521 883.354 240.27 883.247 239.939 883.247C239.523 883.247 239.088 883.367 238.634 883.607L238.322 882.988C238.58 882.821 238.839 882.705 239.1 882.641C239.363 882.576 239.646 882.544 239.948 882.544C240.314 882.544 240.62 882.61 240.866 882.742C241.112 882.874 241.307 883.07 241.451 883.331C241.597 883.588 241.708 883.959 241.785 884.442C241.922 885.383 242.139 886.001 242.435 886.297H243.037C243.066 886.297 243.081 886.309 243.081 886.332V886.956C243.081 886.985 243.066 887 243.037 887H237.781ZM240.049 881.779C239.894 881.779 239.771 881.732 239.68 881.639C239.589 881.545 239.543 881.412 239.543 881.239C239.543 881.066 239.587 880.933 239.675 880.839C239.766 880.745 239.891 880.698 240.049 880.698C240.21 880.698 240.334 880.748 240.422 880.848C240.51 880.944 240.554 881.075 240.554 881.239C240.554 881.403 240.51 881.535 240.422 881.634C240.334 881.731 240.21 881.779 240.049 881.779ZM242.949 887C242.92 887 242.905 886.985 242.905 886.956V886.332C242.905 886.309 242.92 886.297 242.949 886.297H244.136V880.162H244.936V887H242.949ZM246.742 880.162H247.542V887H246.742V880.162ZM253.769 887C253.25 887 252.84 886.845 252.538 886.534C252.236 886.221 252.085 885.794 252.085 885.255C252.085 885.056 252.106 884.826 252.147 884.565C252.191 884.305 252.245 884.083 252.31 883.902H253.03C252.939 884.335 252.894 884.765 252.894 885.189C252.894 885.518 252.972 885.784 253.127 885.989C253.282 886.194 253.487 886.297 253.742 886.297H256.972V882.636H257.737V887H253.769ZM254.129 882.632C253.988 882.632 253.868 882.589 253.769 882.504C253.672 882.419 253.624 882.282 253.624 882.091C253.624 881.901 253.672 881.763 253.769 881.678C253.868 881.593 253.988 881.551 254.129 881.551C254.281 881.551 254.403 881.598 254.494 881.691C254.584 881.782 254.63 881.916 254.63 882.091C254.63 882.264 254.584 882.397 254.494 882.491C254.406 882.585 254.284 882.632 254.129 882.632ZM255.685 882.632C255.529 882.632 255.406 882.585 255.315 882.491C255.225 882.397 255.179 882.264 255.179 882.091C255.179 881.918 255.223 881.785 255.311 881.691C255.402 881.598 255.526 881.551 255.685 881.551C255.846 881.551 255.97 881.601 256.058 881.7C256.146 881.797 256.19 881.927 256.19 882.091C256.19 882.255 256.146 882.387 256.058 882.487C255.97 882.583 255.846 882.632 255.685 882.632ZM259.407 880.162H260.207V887H259.407V880.162ZM264.627 886.297V883.335H264.241C263.708 883.335 263.292 883.476 262.993 883.757C262.697 884.038 262.549 884.432 262.549 884.939C262.549 885.408 262.65 885.752 262.852 885.972C263.057 886.188 263.366 886.297 263.779 886.297H264.627ZM265.392 887.215C265.392 887.828 265.21 888.305 264.847 888.648C264.487 888.991 263.976 889.162 263.313 889.162C262.701 889.162 262.161 889.008 261.692 888.701L262.052 888.099C262.246 888.201 262.445 888.286 262.65 888.354C262.855 888.424 263.082 888.459 263.331 888.459C263.738 888.459 264.058 888.349 264.289 888.129C264.521 887.913 264.636 887.623 264.636 887.259V887H263.753C263.114 887 262.619 886.824 262.268 886.473C261.919 886.121 261.745 885.613 261.745 884.948C261.745 884.242 261.969 883.681 262.417 883.265C262.865 882.846 263.464 882.636 264.214 882.636H265.392V886.297H266.13C266.16 886.297 266.174 886.309 266.174 886.332V886.956C266.174 886.985 266.16 887 266.13 887H265.392V887.215ZM269.826 886.297V883.335H269.439C268.903 883.335 268.487 883.477 268.191 883.761C267.896 884.042 267.748 884.435 267.748 884.939C267.748 885.844 268.158 886.297 268.978 886.297H269.826ZM266.047 887C266.018 887 266.003 886.985 266.003 886.956V886.332C266.003 886.309 266.018 886.297 266.047 886.297H267.414C267.261 886.124 267.146 885.915 267.066 885.668C266.987 885.422 266.948 885.179 266.948 884.939C266.948 884.224 267.169 883.662 267.611 883.251C268.057 882.841 268.657 882.636 269.413 882.636H270.591V886.297H271.544C271.562 886.297 271.575 886.304 271.584 886.319L271.588 886.341V886.965C271.588 886.988 271.574 887 271.544 887H266.047ZM268.332 881.779C268.191 881.779 268.071 881.737 267.972 881.652C267.875 881.567 267.827 881.429 267.827 881.239C267.827 881.048 267.875 880.911 267.972 880.826C268.071 880.741 268.191 880.698 268.332 880.698C268.484 880.698 268.606 880.745 268.697 880.839C268.788 880.93 268.833 881.063 268.833 881.239C268.833 881.412 268.788 881.545 268.697 881.639C268.609 881.732 268.487 881.779 268.332 881.779ZM269.888 881.779C269.732 881.779 269.609 881.732 269.519 881.639C269.428 881.545 269.382 881.412 269.382 881.239C269.382 881.066 269.426 880.933 269.514 880.839C269.605 880.745 269.729 880.698 269.888 880.698C270.049 880.698 270.173 880.748 270.261 880.848C270.349 880.944 270.393 881.075 270.393 881.239C270.393 881.403 270.349 881.535 270.261 881.634C270.173 881.731 270.049 881.779 269.888 881.779ZM271.461 887C271.432 887 271.417 886.985 271.417 886.956V886.332C271.417 886.309 271.432 886.297 271.461 886.297H272.647V880.162H273.447V887H271.461ZM275.253 880.162H276.053V887H275.253V880.162ZM280.373 884.939V884.237H282.551V884.939H280.373ZM288.248 889.887C287.668 889.887 287.211 889.735 286.877 889.43C286.543 889.128 286.376 888.702 286.376 888.151C286.376 887.771 286.489 887.42 286.714 887.101C286.94 886.782 287.293 886.49 287.773 886.227C288.254 885.963 288.916 885.708 289.76 885.462C289.695 885.257 289.635 884.986 289.58 884.649C289.5 884.174 289.353 883.823 289.136 883.594C288.922 883.363 288.632 883.247 288.266 883.247C288.052 883.247 287.794 883.291 287.492 883.379C287.19 883.464 286.924 883.569 286.692 883.695L286.376 883.076C286.607 882.926 286.897 882.8 287.246 882.698C287.595 882.595 287.938 882.544 288.274 882.544C289.423 882.544 290.095 883.177 290.292 884.442C290.385 885.017 290.478 885.414 290.568 885.633C290.659 885.853 290.778 886.019 290.924 886.13C291.071 886.241 291.261 886.297 291.496 886.297H291.544C291.573 886.297 291.588 886.309 291.588 886.332V886.956C291.588 886.985 291.573 887 291.544 887H291.496C291.167 887 290.88 886.93 290.634 886.789C290.391 886.646 290.185 886.416 290.015 886.099C289.297 886.295 288.74 886.492 288.345 886.688C287.949 886.881 287.659 887.094 287.475 887.325C287.29 887.557 287.198 887.809 287.198 888.081C287.198 888.465 287.309 888.746 287.532 888.925C287.754 889.106 288.102 889.197 288.573 889.197C288.875 889.197 289.316 889.149 289.896 889.052L289.993 889.672C289.568 889.763 289.231 889.821 288.982 889.848C288.733 889.874 288.488 889.887 288.248 889.887ZM288.195 881.779C288.04 881.779 287.917 881.732 287.826 881.639C287.735 881.545 287.69 881.412 287.69 881.239C287.69 881.066 287.734 880.933 287.822 880.839C287.913 880.745 288.037 880.698 288.195 880.698C288.356 880.698 288.481 880.748 288.569 880.848C288.657 880.944 288.701 881.075 288.701 881.239C288.701 881.403 288.657 881.535 288.569 881.634C288.481 881.731 288.356 881.779 288.195 881.779ZM297.323 887C297.053 887 296.804 886.956 296.576 886.868C296.35 886.777 296.116 886.612 295.873 886.372C295.741 886.556 295.565 886.707 295.345 886.824C295.125 886.941 294.863 887 294.559 887H291.456C291.427 887 291.412 886.985 291.412 886.956V886.332C291.412 886.309 291.427 886.297 291.456 886.297H292.744V883.335H293.508V886.297H294.479C294.77 886.297 294.995 886.202 295.156 886.011C295.317 885.818 295.398 885.566 295.398 885.255V883.335H296.163V885.497L296.154 885.598C296.303 885.856 296.466 886.038 296.642 886.143C296.82 886.246 297.047 886.297 297.323 886.297H297.872V882.636H298.637V886.297H299.841C299.873 886.297 299.889 886.309 299.889 886.332V886.956C299.889 886.985 299.873 887 299.841 887H297.323ZM299.753 887C299.724 887 299.709 886.985 299.709 886.956V886.332C299.709 886.309 299.724 886.297 299.753 886.297H300.939V882.636H301.739V886.297H302.913C302.942 886.297 302.957 886.309 302.957 886.332V886.956C302.957 886.985 302.942 887 302.913 887H299.753ZM301.309 881.779C301.153 881.779 301.03 881.732 300.939 881.639C300.849 881.545 300.803 881.412 300.803 881.239C300.803 881.066 300.847 880.933 300.935 880.839C301.026 880.745 301.15 880.698 301.309 880.698C301.47 880.698 301.594 880.748 301.682 880.848C301.77 880.944 301.814 881.075 301.814 881.239C301.814 881.403 301.77 881.535 301.682 881.634C301.594 881.731 301.47 881.779 301.309 881.779ZM302.82 887C302.791 887 302.776 886.985 302.776 886.956V886.332C302.776 886.309 302.791 886.297 302.82 886.297H304.007V880.162H304.807V887H302.82ZM306.613 880.162H307.413V887H306.613V880.162ZM314.088 889.162C313.429 889.162 312.909 888.967 312.528 888.578C312.147 888.188 311.957 887.659 311.957 886.991C311.957 886.227 312.08 885.519 312.326 884.869H313.073C312.868 885.443 312.765 886.133 312.765 886.938C312.765 887.425 312.894 887.8 313.152 888.063C313.413 888.327 313.779 888.459 314.25 888.459H316.07C316.656 888.459 317.078 888.345 317.335 888.116C317.596 887.891 317.727 887.539 317.727 887.062V887H316.896C316.231 887 315.723 886.824 315.371 886.473C315.022 886.121 314.848 885.613 314.848 884.948C314.848 884.236 315.072 883.673 315.521 883.26C315.969 882.844 316.566 882.636 317.313 882.636H318.491V887.053C318.491 888.459 317.732 889.162 316.215 889.162H314.088ZM317.727 886.297V883.335H317.34C316.807 883.335 316.391 883.476 316.092 883.757C315.796 884.038 315.648 884.432 315.648 884.939C315.648 885.408 315.749 885.752 315.951 885.972C316.156 886.188 316.465 886.297 316.878 886.297H317.727ZM316.206 881.779C316.065 881.779 315.945 881.737 315.846 881.652C315.749 881.567 315.701 881.429 315.701 881.239C315.701 881.048 315.749 880.911 315.846 880.826C315.945 880.741 316.065 880.698 316.206 880.698C316.358 880.698 316.48 880.745 316.571 880.839C316.662 880.93 316.707 881.063 316.707 881.239C316.707 881.412 316.662 881.545 316.571 881.639C316.483 881.732 316.361 881.779 316.206 881.779ZM317.762 881.779C317.606 881.779 317.483 881.732 317.393 881.639C317.302 881.545 317.256 881.412 317.256 881.239C317.256 881.066 317.3 880.933 317.388 880.839C317.479 880.745 317.604 880.698 317.762 880.698C317.923 880.698 318.047 880.748 318.135 880.848C318.223 880.944 318.267 881.075 318.267 881.239C318.267 881.403 318.223 881.535 318.135 881.634C318.047 881.731 317.923 881.779 317.762 881.779ZM322.776 886.297V883.335H322.389C321.856 883.335 321.44 883.476 321.141 883.757C320.845 884.038 320.697 884.432 320.697 884.939C320.697 885.408 320.798 885.752 321 885.972C321.206 886.188 321.515 886.297 321.928 886.297H322.776ZM323.541 887.215C323.541 887.828 323.359 888.305 322.996 888.648C322.635 888.991 322.124 889.162 321.462 889.162C320.85 889.162 320.309 889.008 319.84 888.701L320.201 888.099C320.394 888.201 320.593 888.286 320.798 888.354C321.003 888.424 321.23 888.459 321.479 888.459C321.887 888.459 322.206 888.349 322.438 888.129C322.669 887.913 322.785 887.623 322.785 887.259V887H321.901C321.263 887 320.768 886.824 320.416 886.473C320.067 886.121 319.893 885.613 319.893 884.948C319.893 884.242 320.117 883.681 320.565 883.265C321.014 882.846 321.613 882.636 322.363 882.636H323.541V886.297H324.279C324.308 886.297 324.323 886.309 324.323 886.332V886.956C324.323 886.985 324.308 887 324.279 887H323.541V887.215ZM327.975 886.297V883.335H327.588C327.052 883.335 326.636 883.477 326.34 883.761C326.044 884.042 325.896 884.435 325.896 884.939C325.896 885.844 326.306 886.297 327.126 886.297H327.975ZM324.195 887C324.166 887 324.151 886.985 324.151 886.956V886.332C324.151 886.309 324.166 886.297 324.195 886.297H325.562C325.41 886.124 325.294 885.915 325.215 885.668C325.136 885.422 325.096 885.179 325.096 884.939C325.096 884.224 325.317 883.662 325.76 883.251C326.205 882.841 326.806 882.636 327.562 882.636H328.739V886.297H329.693C329.71 886.297 329.724 886.304 329.732 886.319L329.737 886.341V886.965C329.737 886.988 329.722 887 329.693 887H324.195ZM326.48 881.779C326.34 881.779 326.22 881.737 326.12 881.652C326.023 881.567 325.975 881.429 325.975 881.239C325.975 881.048 326.023 880.911 326.12 880.826C326.22 880.741 326.34 880.698 326.48 880.698C326.633 880.698 326.754 880.745 326.845 880.839C326.936 880.93 326.981 881.063 326.981 881.239C326.981 881.412 326.936 881.545 326.845 881.639C326.757 881.732 326.636 881.779 326.48 881.779ZM328.036 881.779C327.881 881.779 327.758 881.732 327.667 881.639C327.576 881.545 327.531 881.412 327.531 881.239C327.531 881.066 327.575 880.933 327.663 880.839C327.753 880.745 327.878 880.698 328.036 880.698C328.197 880.698 328.322 880.748 328.41 880.848C328.498 880.944 328.542 881.075 328.542 881.239C328.542 881.403 328.498 881.535 328.41 881.634C328.322 881.731 328.197 881.779 328.036 881.779ZM329.609 887C329.58 887 329.565 886.985 329.565 886.956V886.332C329.565 886.309 329.58 886.297 329.609 886.297H333.468C333.248 886.077 333.059 885.528 332.901 884.649C332.813 884.13 332.686 883.767 332.519 883.559C332.352 883.351 332.101 883.247 331.767 883.247C331.351 883.247 330.916 883.367 330.462 883.607L330.15 882.988C330.408 882.821 330.667 882.705 330.928 882.641C331.191 882.576 331.474 882.544 331.776 882.544C332.142 882.544 332.448 882.61 332.694 882.742C332.94 882.874 333.135 883.07 333.279 883.331C333.425 883.588 333.537 883.959 333.613 884.442C333.701 884.979 333.799 885.393 333.907 885.686C334.019 885.976 334.146 886.186 334.29 886.314V887H329.609ZM190.641 901H189.867V896.509C189.867 896.335 189.867 896.188 189.867 896.068C189.873 895.948 189.879 895.837 189.885 895.735C189.891 895.627 189.897 895.516 189.903 895.402C189.807 895.498 189.72 895.579 189.642 895.645C189.564 895.711 189.465 895.795 189.345 895.897L188.661 896.455L188.247 895.924L189.984 894.574H190.641V901ZM193.245 900.514C193.245 900.292 193.299 900.136 193.407 900.046C193.515 899.956 193.644 899.911 193.794 899.911C193.95 899.911 194.082 899.956 194.19 900.046C194.304 900.136 194.361 900.292 194.361 900.514C194.361 900.73 194.304 900.886 194.19 900.982C194.082 901.078 193.95 901.126 193.794 901.126C193.644 901.126 193.515 901.078 193.407 900.982C193.299 900.886 193.245 900.73 193.245 900.514ZM199.685 897.319C199.685 897.685 199.658 898.051 199.604 898.417C199.556 898.777 199.469 899.119 199.343 899.443C199.217 899.761 199.043 900.046 198.821 900.298C198.599 900.544 198.317 900.739 197.975 900.883C197.633 901.021 197.219 901.09 196.733 901.09C196.613 901.09 196.472 901.081 196.31 901.063C196.154 901.051 196.025 901.03 195.923 901V900.325C196.031 900.361 196.157 900.391 196.301 900.415C196.445 900.433 196.583 900.442 196.715 900.442C197.135 900.442 197.48 900.373 197.75 900.235C198.026 900.097 198.245 899.911 198.407 899.677C198.569 899.437 198.686 899.161 198.758 898.849C198.83 898.531 198.872 898.198 198.884 897.85H198.83C198.74 897.988 198.626 898.114 198.488 898.228C198.35 898.342 198.182 898.432 197.984 898.498C197.792 898.564 197.564 898.597 197.3 898.597C196.934 898.597 196.61 898.522 196.328 898.372C196.052 898.216 195.836 897.994 195.68 897.706C195.53 897.418 195.455 897.067 195.455 896.653C195.455 896.203 195.539 895.816 195.707 895.492C195.881 895.168 196.121 894.919 196.427 894.745C196.733 894.571 197.093 894.484 197.507 894.484C197.813 894.484 198.098 894.544 198.362 894.664C198.626 894.778 198.857 894.952 199.055 895.186C199.253 895.42 199.406 895.714 199.514 896.068C199.628 896.422 199.685 896.839 199.685 897.319ZM197.507 895.15C197.135 895.15 196.829 895.273 196.589 895.519C196.355 895.765 196.238 896.14 196.238 896.644C196.238 897.058 196.337 897.385 196.535 897.625C196.739 897.859 197.051 897.976 197.471 897.976C197.759 897.976 198.008 897.919 198.218 897.805C198.428 897.685 198.59 897.535 198.704 897.355C198.824 897.175 198.884 896.989 198.884 896.797C198.884 896.605 198.854 896.413 198.794 896.221C198.74 896.023 198.656 895.843 198.542 895.681C198.428 895.519 198.284 895.39 198.11 895.294C197.936 895.198 197.735 895.15 197.507 895.15ZM200.803 900.514C200.803 900.292 200.857 900.136 200.965 900.046C201.073 899.956 201.202 899.911 201.352 899.911C201.508 899.911 201.64 899.956 201.748 900.046C201.862 900.136 201.919 900.292 201.919 900.514C201.919 900.73 201.862 900.886 201.748 900.982C201.64 901.078 201.508 901.126 201.352 901.126C201.202 901.126 201.073 901.078 200.965 900.982C200.857 900.886 200.803 900.73 200.803 900.514ZM205.758 901H204.984V896.509C204.984 896.335 204.984 896.188 204.984 896.068C204.99 895.948 204.996 895.837 205.002 895.735C205.008 895.627 205.014 895.516 205.02 895.402C204.924 895.498 204.837 895.579 204.759 895.645C204.681 895.711 204.582 895.795 204.462 895.897L203.778 896.455L203.364 895.924L205.101 894.574H205.758V901ZM211.331 903.162C211.043 903.162 210.737 903.077 210.412 902.907L210.645 902.305C210.792 902.37 210.912 902.411 211.005 902.428C211.099 902.449 211.202 902.459 211.313 902.459C211.583 902.459 211.793 902.349 211.946 902.129C212.098 901.91 212.174 901.62 212.174 901.259V896.636H212.935V901.215C212.935 901.822 212.797 902.298 212.521 902.644C212.246 902.989 211.849 903.162 211.331 903.162ZM214.6 894.162H215.4V901H214.6V894.162ZM216.705 900.297H219.702C219.585 899.491 219.361 898.806 219.03 898.24C218.699 897.672 218.227 897.181 217.615 896.768L217.905 896.087C218.596 896.453 219.159 896.991 219.592 897.7C220.029 898.409 220.32 899.274 220.467 900.297H221.469C221.498 900.297 221.513 900.309 221.513 900.332V900.956C221.513 900.985 221.498 901 221.469 901H216.705V900.297ZM221.381 901C221.352 901 221.337 900.985 221.337 900.956V900.332C221.337 900.309 221.352 900.297 221.381 900.297H222.479V896.904H223.244V898.57C223.525 897.899 223.878 897.394 224.303 897.054C224.728 896.714 225.206 896.544 225.736 896.544C226.416 896.544 226.928 896.729 227.274 897.098C227.623 897.467 227.797 898.044 227.797 898.829V901H221.381ZM227.032 900.297V898.869C227.032 898.315 226.911 897.908 226.667 897.647C226.427 897.386 226.062 897.256 225.573 897.256C224.65 897.256 223.874 898.023 223.244 899.559V900.297H227.032ZM228.878 900.297H230.895L229.735 895.375H230.57L231.73 900.297H231.976C232.612 900.297 232.93 899.95 232.93 899.255V894.162H233.729V899.361C233.729 899.859 233.579 900.257 233.277 900.556C232.975 900.852 232.571 901 232.064 901H228.878V900.297ZM230.552 903.316L230.979 903.254C230.894 903.202 230.819 903.127 230.754 903.03C230.693 902.934 230.662 902.819 230.662 902.688C230.662 902.436 230.743 902.238 230.904 902.094C231.068 901.951 231.293 901.879 231.581 901.879C231.815 901.879 232.013 901.924 232.174 902.015L232.038 902.419C231.917 902.346 231.768 902.31 231.589 902.31C231.458 902.31 231.346 902.346 231.255 902.419C231.165 902.496 231.119 902.613 231.119 902.771C231.119 902.961 231.21 903.102 231.392 903.193C231.45 903.178 231.6 903.155 231.84 903.123C232.08 903.09 232.231 903.074 232.292 903.074V903.518C232.158 903.518 231.872 903.546 231.436 903.602C231.002 903.657 230.708 903.701 230.552 903.733V903.316ZM235.439 894.162H236.239V900.297H237.425C237.458 900.297 237.474 900.309 237.474 900.332V900.956C237.474 900.985 237.458 901 237.425 901H235.439V894.162ZM237.342 901C237.312 901 237.298 900.985 237.298 900.956V900.332C237.298 900.309 237.312 900.297 237.342 900.297H238.458C238.235 899.717 238.124 899.204 238.124 898.759C238.124 898.223 238.232 897.745 238.449 897.326C238.669 897.142 238.921 896.995 239.205 896.887C239.489 896.778 239.785 896.724 240.093 896.724C240.468 896.724 240.797 896.808 241.082 896.975C241.366 897.139 241.584 897.373 241.736 897.678C241.889 897.982 241.965 898.328 241.965 898.715C241.965 899.187 241.878 899.594 241.706 899.937C241.536 900.279 241.294 900.543 240.98 900.728C240.67 900.909 240.314 901 239.913 901H237.342ZM238.933 898.605C238.933 898.883 238.958 899.157 239.007 899.427C239.057 899.693 239.146 899.983 239.275 900.297H239.913C240.314 900.297 240.622 900.161 240.835 899.888C241.049 899.616 241.156 899.222 241.156 898.706C241.156 898.328 241.052 898.019 240.844 897.779C240.639 897.539 240.389 897.418 240.093 897.418C239.902 897.418 239.715 897.452 239.53 897.52C239.349 897.587 239.186 897.676 239.042 897.788C238.993 897.914 238.962 898.042 238.95 898.174C238.938 898.303 238.933 898.447 238.933 898.605Z" fill="white"/>
</g>
<defs>
<clipPath id="clip0_632_31447">
<rect width="430" height="932" fill="white"/>
</clipPath>
</defs>
</svg>
