<svg width="53" height="19" viewBox="0 0 53 19" fill="none" xmlns="http://www.w3.org/2000/svg">
<rect x="1" y="1" width="51" height="17" rx="8.5" fill="#FCD0CD" stroke="#F77268"/>
<path d="M8.09828 13V6.45455H10.3099C10.8213 6.45455 11.241 6.5419 11.5692 6.71662C11.8973 6.8892 12.1402 7.12678 12.2979 7.42933C12.4555 7.73189 12.5344 8.07599 12.5344 8.46165C12.5344 8.8473 12.4555 9.18928 12.2979 9.48757C12.1402 9.78587 11.8983 10.0202 11.5724 10.1907C11.2464 10.359 10.8298 10.4432 10.3227 10.4432H8.53294V9.72727H10.2971C10.6466 9.72727 10.9278 9.67614 11.1409 9.57386C11.3561 9.47159 11.5116 9.3267 11.6075 9.1392C11.7055 8.94957 11.7545 8.72372 11.7545 8.46165C11.7545 8.19957 11.7055 7.97053 11.6075 7.7745C11.5095 7.57848 11.3529 7.4272 11.1377 7.32067C10.9225 7.212 10.6381 7.15767 10.2844 7.15767H8.89089V13H8.09828ZM11.1792 10.0597L12.79 13H11.8696L10.2844 10.0597H11.1792ZM15.7583 13.1023C15.2853 13.1023 14.8773 12.9979 14.5343 12.7891C14.1934 12.5781 13.9302 12.2841 13.7449 11.907C13.5616 11.5277 13.47 11.0866 13.47 10.5838C13.47 10.081 13.5616 9.63778 13.7449 9.25426C13.9302 8.86861 14.188 8.56818 14.5183 8.35298C14.8507 8.13565 15.2385 8.02699 15.6816 8.02699C15.9373 8.02699 16.1898 8.0696 16.4391 8.15483C16.6884 8.24006 16.9153 8.37855 17.1199 8.57031C17.3244 8.75994 17.4874 9.01136 17.6088 9.32457C17.7303 9.63778 17.791 10.0234 17.791 10.4815V10.8011H14.0069V10.1491H17.024C17.024 9.87216 16.9686 9.625 16.8578 9.40767C16.7491 9.19034 16.5936 9.01882 16.3912 8.89311C16.1909 8.7674 15.9544 8.70455 15.6816 8.70455C15.3812 8.70455 15.1213 8.77912 14.9018 8.92827C14.6845 9.07528 14.5172 9.26705 14.4 9.50355C14.2828 9.74006 14.2243 9.99361 14.2243 10.2642V10.6989C14.2243 11.0696 14.2882 11.3839 14.416 11.6417C14.546 11.8974 14.726 12.0923 14.9561 12.2266C15.1863 12.3587 15.4537 12.4247 15.7583 12.4247C15.9565 12.4247 16.1355 12.397 16.2953 12.3416C16.4572 12.2841 16.5968 12.1989 16.714 12.0859C16.8311 11.9709 16.9217 11.8281 16.9856 11.6577L17.7143 11.8622C17.6376 12.1094 17.5087 12.3267 17.3276 12.5142C17.1465 12.6996 16.9228 12.8445 16.6564 12.9489C16.3901 13.0511 16.0907 13.1023 15.7583 13.1023ZM18.9384 8.09091H19.6926V13.358C19.6926 13.6605 19.6404 13.9226 19.536 14.1442C19.4338 14.3658 19.2782 14.5373 19.0694 14.6587C18.8627 14.7802 18.6017 14.8409 18.2864 14.8409C18.2608 14.8409 18.2353 14.8409 18.2097 14.8409C18.1841 14.8409 18.1586 14.8409 18.133 14.8409V14.1378C18.1586 14.1378 18.182 14.1378 18.2033 14.1378C18.2246 14.1378 18.248 14.1378 18.2736 14.1378C18.5037 14.1378 18.6721 14.0696 18.7786 13.9332C18.8851 13.799 18.9384 13.6072 18.9384 13.358V8.09091ZM19.3091 7.27273C19.1621 7.27273 19.0353 7.22266 18.9288 7.12251C18.8244 7.02237 18.7722 6.90199 18.7722 6.76136C18.7722 6.62074 18.8244 6.50036 18.9288 6.40021C19.0353 6.30007 19.1621 6.25 19.3091 6.25C19.4561 6.25 19.5819 6.30007 19.6863 6.40021C19.7928 6.50036 19.8461 6.62074 19.8461 6.76136C19.8461 6.90199 19.7928 7.02237 19.6863 7.12251C19.5819 7.22266 19.4561 7.27273 19.3091 7.27273ZM23.1324 13.1023C22.6594 13.1023 22.2513 12.9979 21.9083 12.7891C21.5674 12.5781 21.3042 12.2841 21.1189 11.907C20.9356 11.5277 20.844 11.0866 20.844 10.5838C20.844 10.081 20.9356 9.63778 21.1189 9.25426C21.3042 8.86861 21.5621 8.56818 21.8923 8.35298C22.2247 8.13565 22.6125 8.02699 23.0557 8.02699C23.3113 8.02699 23.5638 8.0696 23.8131 8.15483C24.0624 8.24006 24.2893 8.37855 24.4939 8.57031C24.6984 8.75994 24.8614 9.01136 24.9829 9.32457C25.1043 9.63778 25.165 10.0234 25.165 10.4815V10.8011H21.3809V10.1491H24.398C24.398 9.87216 24.3426 9.625 24.2318 9.40767C24.1231 9.19034 23.9676 9.01882 23.7652 8.89311C23.5649 8.7674 23.3284 8.70455 23.0557 8.70455C22.7552 8.70455 22.4953 8.77912 22.2758 8.92827C22.0585 9.07528 21.8912 9.26705 21.7741 9.50355C21.6569 9.74006 21.5983 9.99361 21.5983 10.2642V10.6989C21.5983 11.0696 21.6622 11.3839 21.79 11.6417C21.92 11.8974 22.1001 12.0923 22.3302 12.2266C22.5603 12.3587 22.8277 12.4247 23.1324 12.4247C23.3305 12.4247 23.5095 12.397 23.6693 12.3416C23.8312 12.2841 23.9708 12.1989 24.088 12.0859C24.2052 11.9709 24.2957 11.8281 24.3596 11.6577L25.0883 11.8622C25.0116 12.1094 24.8827 12.3267 24.7016 12.5142C24.5205 12.6996 24.2968 12.8445 24.0305 12.9489C23.7641 13.0511 23.4648 13.1023 23.1324 13.1023ZM28.3067 13.1023C27.8465 13.1023 27.4502 12.9936 27.1178 12.7763C26.7854 12.5589 26.5297 12.2596 26.3508 11.8782C26.1718 11.4968 26.0823 11.0611 26.0823 10.571C26.0823 10.0724 26.1739 9.63246 26.3572 9.25107C26.5425 8.86754 26.8003 8.56818 27.1306 8.35298C27.463 8.13565 27.8508 8.02699 28.2939 8.02699C28.6391 8.02699 28.9502 8.09091 29.2272 8.21875C29.5042 8.34659 29.7311 8.52557 29.9079 8.75568C30.0848 8.9858 30.1945 9.25426 30.2371 9.56108H29.4829C29.4253 9.33736 29.2975 9.1392 29.0993 8.96662C28.9033 8.7919 28.6391 8.70455 28.3067 8.70455C28.0127 8.70455 27.7549 8.78125 27.5333 8.93466C27.3138 9.08594 27.1423 9.30007 27.0187 9.57706C26.8973 9.85192 26.8366 10.1747 26.8366 10.5455C26.8366 10.9247 26.8962 11.255 27.0155 11.5362C27.137 11.8175 27.3074 12.0359 27.5269 12.1914C27.7485 12.3469 28.0084 12.4247 28.3067 12.4247C28.5028 12.4247 28.6807 12.3906 28.8405 12.3224C29.0003 12.2543 29.1356 12.1562 29.2464 12.0284C29.3572 11.9006 29.436 11.7472 29.4829 11.5682H30.2371C30.1945 11.858 30.089 12.119 29.9207 12.3512C29.7545 12.5813 29.534 12.7646 29.2591 12.9009C28.9864 13.0352 28.6689 13.1023 28.3067 13.1023ZM33.4747 8.09091V8.73011H30.9307V8.09091H33.4747ZM31.6721 6.91477H32.4264V11.5938C32.4264 11.8068 32.4573 11.9666 32.5191 12.0732C32.583 12.1776 32.664 12.2479 32.762 12.2841C32.8621 12.3182 32.9676 12.3352 33.0784 12.3352C33.1615 12.3352 33.2297 12.331 33.2829 12.3224C33.3362 12.3118 33.3788 12.3033 33.4108 12.2969L33.5642 12.9744C33.5131 12.9936 33.4417 13.0128 33.3501 13.032C33.2584 13.0533 33.1423 13.0639 33.0017 13.0639C32.7886 13.0639 32.5798 13.0181 32.3753 12.9265C32.1729 12.8349 32.0045 12.6953 31.8703 12.5078C31.7382 12.3203 31.6721 12.0838 31.6721 11.7983V6.91477ZM36.6148 13.1023C36.1418 13.1023 35.7338 12.9979 35.3907 12.7891C35.0498 12.5781 34.7867 12.2841 34.6013 11.907C34.4181 11.5277 34.3264 11.0866 34.3264 10.5838C34.3264 10.081 34.4181 9.63778 34.6013 9.25426C34.7867 8.86861 35.0445 8.56818 35.3747 8.35298C35.7071 8.13565 36.0949 8.02699 36.5381 8.02699C36.7938 8.02699 37.0463 8.0696 37.2955 8.15483C37.5448 8.24006 37.7718 8.37855 37.9763 8.57031C38.1808 8.75994 38.3438 9.01136 38.4653 9.32457C38.5867 9.63778 38.6475 10.0234 38.6475 10.4815V10.8011H34.8634V10.1491H37.8804C37.8804 9.87216 37.825 9.625 37.7142 9.40767C37.6056 9.19034 37.45 9.01882 37.2476 8.89311C37.0473 8.7674 36.8108 8.70455 36.5381 8.70455C36.2377 8.70455 35.9777 8.77912 35.7583 8.92827C35.5409 9.07528 35.3737 9.26705 35.2565 9.50355C35.1393 9.74006 35.0807 9.99361 35.0807 10.2642V10.6989C35.0807 11.0696 35.1446 11.3839 35.2725 11.6417C35.4024 11.8974 35.5825 12.0923 35.8126 12.2266C36.0427 12.3587 36.3101 12.4247 36.6148 12.4247C36.8129 12.4247 36.9919 12.397 37.1517 12.3416C37.3137 12.2841 37.4532 12.1989 37.5704 12.0859C37.6876 11.9709 37.7781 11.8281 37.8421 11.6577L38.5708 11.8622C38.4941 12.1094 38.3651 12.3267 38.184 12.5142C38.0029 12.6996 37.7792 12.8445 37.5129 12.9489C37.2465 13.0511 36.9472 13.1023 36.6148 13.1023ZM41.6485 13.1023C41.2394 13.1023 40.8783 12.9989 40.5651 12.7923C40.2519 12.5835 40.0068 12.2894 39.83 11.9102C39.6531 11.5288 39.5647 11.0781 39.5647 10.5582C39.5647 10.0426 39.6531 9.59517 39.83 9.21591C40.0068 8.83665 40.2529 8.54368 40.5683 8.337C40.8836 8.13033 41.248 8.02699 41.6613 8.02699C41.9809 8.02699 42.2334 8.08026 42.4188 8.18679C42.6063 8.29119 42.749 8.41051 42.847 8.54474C42.9472 8.67685 43.0249 8.78551 43.0803 8.87074H43.1443V6.45455H43.8985V13H43.1698V12.2457H43.0803C43.0249 12.3352 42.9461 12.4482 42.8438 12.5845C42.7416 12.7187 42.5956 12.8391 42.406 12.9457C42.2164 13.0501 41.9639 13.1023 41.6485 13.1023ZM41.7508 12.4247C42.0534 12.4247 42.309 12.3459 42.5178 12.1882C42.7267 12.0284 42.8854 11.8079 42.9941 11.5266C43.1027 11.2433 43.157 10.9162 43.157 10.5455C43.157 10.179 43.1038 9.85831 42.9972 9.58345C42.8907 9.30646 42.733 9.09126 42.5242 8.93786C42.3154 8.78232 42.0576 8.70455 41.7508 8.70455C41.4312 8.70455 41.1649 8.78658 40.9518 8.95064C40.7409 9.11257 40.5821 9.3331 40.4756 9.61222C40.3712 9.8892 40.319 10.2003 40.319 10.5455C40.319 10.8949 40.3722 11.2124 40.4788 11.4979C40.5874 11.7812 40.7472 12.0071 40.9582 12.1754C41.1713 12.3416 41.4355 12.4247 41.7508 12.4247Z" fill="#F77268"/>
</svg>
