<svg width="79" height="19" viewBox="0 0 79 19" fill="none" xmlns="http://www.w3.org/2000/svg">
<rect x="1" y="1" width="77" height="17" rx="8.5" fill="#FDEFD4" stroke="#FFC043"/>
<path d="M11.4577 6.45455H12.2503V10.7884C12.2503 11.2358 12.1448 11.6353 11.9339 11.9869C11.7251 12.3363 11.43 12.6122 11.0486 12.8146C10.6672 13.0149 10.2198 13.1151 9.70628 13.1151C9.19278 13.1151 8.74534 13.0149 8.36395 12.8146C7.98256 12.6122 7.68639 12.3363 7.47545 11.9869C7.26665 11.6353 7.16224 11.2358 7.16224 10.7884V6.45455H7.95486V10.7244C7.95486 11.044 8.02517 11.3285 8.16579 11.5778C8.30642 11.8249 8.5067 12.0199 8.76665 12.1626C9.02872 12.3033 9.34193 12.3736 9.70628 12.3736C10.0706 12.3736 10.3838 12.3033 10.6459 12.1626C10.908 12.0199 11.1083 11.8249 11.2468 11.5778C11.3874 11.3285 11.4577 11.044 11.4577 10.7244V6.45455ZM14.4851 10.0469V13H13.7309V8.09091H14.4596V8.85795H14.5235C14.6385 8.60866 14.8133 8.40838 15.0476 8.2571C15.282 8.10369 15.5846 8.02699 15.9553 8.02699C16.2877 8.02699 16.5785 8.09517 16.8278 8.23153C17.0771 8.36577 17.271 8.57031 17.4095 8.84517C17.548 9.1179 17.6172 9.46307 17.6172 9.88068V13H16.863V9.93182C16.863 9.54616 16.7628 9.24574 16.5625 9.03054C16.3623 8.81321 16.0874 8.70455 15.738 8.70455C15.4972 8.70455 15.282 8.75675 15.0924 8.86115C14.9049 8.96555 14.7568 9.1179 14.6481 9.31818C14.5395 9.51847 14.4851 9.76136 14.4851 10.0469ZM20.8492 13.1023C20.4401 13.1023 20.079 12.9989 19.7658 12.7923C19.4525 12.5835 19.2075 12.2894 19.0307 11.9102C18.8538 11.5288 18.7654 11.0781 18.7654 10.5582C18.7654 10.0426 18.8538 9.59517 19.0307 9.21591C19.2075 8.83665 19.4536 8.54368 19.769 8.337C20.0843 8.13033 20.4486 8.02699 20.862 8.02699C21.1816 8.02699 21.4341 8.08026 21.6195 8.18679C21.807 8.29119 21.9497 8.41051 22.0477 8.54474C22.1479 8.67685 22.2256 8.78551 22.281 8.87074H22.3449V6.45455H23.0992V13H22.3705V12.2457H22.281C22.2256 12.3352 22.1468 12.4482 22.0445 12.5845C21.9422 12.7187 21.7963 12.8391 21.6067 12.9457C21.417 13.0501 21.1646 13.1023 20.8492 13.1023ZM20.9515 12.4247C21.254 12.4247 21.5097 12.3459 21.7185 12.1882C21.9273 12.0284 22.0861 11.8079 22.1947 11.5266C22.3034 11.2433 22.3577 10.9162 22.3577 10.5455C22.3577 10.179 22.3045 9.85831 22.1979 9.58345C22.0914 9.30646 21.9337 9.09126 21.7249 8.93786C21.5161 8.78232 21.2583 8.70455 20.9515 8.70455C20.6319 8.70455 20.3655 8.78658 20.1525 8.95064C19.9415 9.11257 19.7828 9.3331 19.6763 9.61222C19.5719 9.8892 19.5197 10.2003 19.5197 10.5455C19.5197 10.8949 19.5729 11.2124 19.6795 11.4979C19.7881 11.7812 19.9479 12.0071 20.1589 12.1754C20.3719 12.3416 20.6361 12.4247 20.9515 12.4247ZM26.6436 13.1023C26.1706 13.1023 25.7626 12.9979 25.4195 12.7891C25.0786 12.5781 24.8155 12.2841 24.6301 11.907C24.4469 11.5277 24.3552 11.0866 24.3552 10.5838C24.3552 10.081 24.4469 9.63778 24.6301 9.25426C24.8155 8.86861 25.0733 8.56818 25.4035 8.35298C25.7359 8.13565 26.1237 8.02699 26.5669 8.02699C26.8226 8.02699 27.0751 8.0696 27.3244 8.15483C27.5736 8.24006 27.8006 8.37855 28.0051 8.57031C28.2097 8.75994 28.3726 9.01136 28.4941 9.32457C28.6155 9.63778 28.6763 10.0234 28.6763 10.4815V10.8011H24.8922V10.1491H27.9092C27.9092 9.87216 27.8538 9.625 27.743 9.40767C27.6344 9.19034 27.4788 9.01882 27.2764 8.89311C27.0761 8.7674 26.8396 8.70455 26.5669 8.70455C26.2665 8.70455 26.0065 8.77912 25.7871 8.92827C25.5697 9.07528 25.4025 9.26705 25.2853 9.50355C25.1681 9.74006 25.1095 9.99361 25.1095 10.2642V10.6989C25.1095 11.0696 25.1734 11.3839 25.3013 11.6417C25.4312 11.8974 25.6113 12.0923 25.8414 12.2266C26.0715 12.3587 26.3389 12.4247 26.6436 12.4247C26.8418 12.4247 27.0207 12.397 27.1805 12.3416C27.3425 12.2841 27.482 12.1989 27.5992 12.0859C27.7164 11.9709 27.807 11.8281 27.8709 11.6577L28.5996 11.8622C28.5229 12.1094 28.394 12.3267 28.2128 12.5142C28.0317 12.6996 27.808 12.8445 27.5417 12.9489C27.2753 13.0511 26.976 13.1023 26.6436 13.1023ZM29.8236 13V8.09091H30.5523V8.83239H30.6035C30.693 8.58949 30.8549 8.3924 31.0893 8.24112C31.3236 8.08984 31.5878 8.0142 31.8819 8.0142C31.9373 8.0142 32.0065 8.01527 32.0896 8.0174C32.1727 8.01953 32.2356 8.02273 32.2782 8.02699V8.79403C32.2526 8.78764 32.194 8.77805 32.1024 8.76527C32.0129 8.75035 31.9181 8.7429 31.818 8.7429C31.5793 8.7429 31.3663 8.79297 31.1788 8.89311C30.9934 8.99112 30.8464 9.12749 30.7377 9.3022C30.6312 9.47479 30.5779 9.67187 30.5779 9.89347V13H29.8236ZM36.0743 13H35.2433L37.6467 6.45455H38.4649L40.8683 13H40.0373L38.0814 7.49006H38.0302L36.0743 13ZM36.3811 10.4432H39.7305V11.1463H36.3811V10.4432ZM41.7856 14.8409V8.09091H42.5142V8.87074H42.6037C42.6591 8.78551 42.7358 8.67685 42.8339 8.54474C42.934 8.41051 43.0767 8.29119 43.2621 8.18679C43.4496 8.08026 43.7032 8.02699 44.0228 8.02699C44.4361 8.02699 44.8005 8.13033 45.1158 8.337C45.4312 8.54368 45.6772 8.83665 45.8541 9.21591C46.0309 9.59517 46.1194 10.0426 46.1194 10.5582C46.1194 11.0781 46.0309 11.5288 45.8541 11.9102C45.6772 12.2894 45.4322 12.5835 45.119 12.7923C44.8058 12.9989 44.4446 13.1023 44.0356 13.1023C43.7202 13.1023 43.4677 13.0501 43.2781 12.9457C43.0885 12.8391 42.9425 12.7187 42.8402 12.5845C42.738 12.4482 42.6591 12.3352 42.6037 12.2457H42.5398V14.8409H41.7856ZM42.527 10.5455C42.527 10.9162 42.5814 11.2433 42.69 11.5266C42.7987 11.8079 42.9574 12.0284 43.1662 12.1882C43.375 12.3459 43.6307 12.4247 43.9333 12.4247C44.2486 12.4247 44.5118 12.3416 44.7227 12.1754C44.9358 12.0071 45.0956 11.7812 45.2021 11.4979C45.3108 11.2124 45.3651 10.8949 45.3651 10.5455C45.3651 10.2003 45.3118 9.8892 45.2053 9.61222C45.1009 9.3331 44.9422 9.11257 44.7291 8.95064C44.5182 8.78658 44.2529 8.70455 43.9333 8.70455C43.6265 8.70455 43.3687 8.78232 43.1598 8.93786C42.951 9.09126 42.7934 9.30646 42.6868 9.58345C42.5803 9.85831 42.527 10.179 42.527 10.5455ZM47.2699 14.8409V8.09091H47.9986V8.87074H48.0881C48.1435 8.78551 48.2202 8.67685 48.3182 8.54474C48.4184 8.41051 48.5611 8.29119 48.7465 8.18679C48.934 8.08026 49.1875 8.02699 49.5071 8.02699C49.9205 8.02699 50.2848 8.13033 50.6002 8.337C50.9155 8.54368 51.1616 8.83665 51.3385 9.21591C51.5153 9.59517 51.6037 10.0426 51.6037 10.5582C51.6037 11.0781 51.5153 11.5288 51.3385 11.9102C51.1616 12.2894 50.9166 12.5835 50.6034 12.7923C50.2902 12.9989 49.929 13.1023 49.5199 13.1023C49.2046 13.1023 48.9521 13.0501 48.7625 12.9457C48.5728 12.8391 48.4269 12.7187 48.3246 12.5845C48.2223 12.4482 48.1435 12.3352 48.0881 12.2457H48.0242V14.8409H47.2699ZM48.0114 10.5455C48.0114 10.9162 48.0657 11.2433 48.1744 11.5266C48.2831 11.8079 48.4418 12.0284 48.6506 12.1882C48.8594 12.3459 49.1151 12.4247 49.4177 12.4247C49.733 12.4247 49.9961 12.3416 50.2071 12.1754C50.4201 12.0071 50.5799 11.7812 50.6865 11.4979C50.7951 11.2124 50.8495 10.8949 50.8495 10.5455C50.8495 10.2003 50.7962 9.8892 50.6897 9.61222C50.5853 9.3331 50.4265 9.11257 50.2135 8.95064C50.0025 8.78658 49.7373 8.70455 49.4177 8.70455C49.1108 8.70455 48.853 8.78232 48.6442 8.93786C48.4354 9.09126 48.2777 9.30646 48.1712 9.58345C48.0647 9.85831 48.0114 10.179 48.0114 10.5455ZM52.7543 13V8.09091H53.483V8.83239H53.5341C53.6215 8.58949 53.7824 8.3924 54.0167 8.24112C54.2511 8.08984 54.5164 8.0142 54.8125 8.0142C54.9489 8.0142 55.0682 8.03018 55.1705 8.06214C55.2728 8.09411 55.3623 8.13778 55.439 8.19318L55.1833 8.83239C55.13 8.80469 55.0672 8.78338 54.9947 8.76847C54.9244 8.75142 54.8424 8.7429 54.7486 8.7429C54.51 8.7429 54.2969 8.79297 54.1094 8.89311C53.9241 8.99325 53.777 9.12962 53.6684 9.3022C53.5618 9.47479 53.5086 9.67187 53.5086 9.89347V13H52.7543ZM58.0533 13.1023C57.6101 13.1023 57.2213 12.9968 56.8868 12.7859C56.5544 12.5749 56.2944 12.2798 56.1069 11.9006C55.9216 11.5213 55.8289 11.0781 55.8289 10.571C55.8289 10.0597 55.9216 9.61328 56.1069 9.23189C56.2944 8.8505 56.5544 8.55433 56.8868 8.34339C57.2213 8.13246 57.6101 8.02699 58.0533 8.02699C58.4965 8.02699 58.8843 8.13246 59.2167 8.34339C59.5512 8.55433 59.8111 8.8505 59.9965 9.23189C60.184 9.61328 60.2777 10.0597 60.2777 10.571C60.2777 11.0781 60.184 11.5213 59.9965 11.9006C59.8111 12.2798 59.5512 12.5749 59.2167 12.7859C58.8843 12.9968 58.4965 13.1023 58.0533 13.1023ZM58.0533 12.4247C58.39 12.4247 58.6669 12.3384 58.8843 12.1658C59.1016 11.9933 59.2625 11.7663 59.3669 11.4851C59.4713 11.2038 59.5235 10.8991 59.5235 10.571C59.5235 10.2429 59.4713 9.93714 59.3669 9.65376C59.2625 9.37038 59.1016 9.14134 58.8843 8.96662C58.6669 8.7919 58.39 8.70455 58.0533 8.70455C57.7167 8.70455 57.4397 8.7919 57.2223 8.96662C57.005 9.14134 56.8441 9.37038 56.7397 9.65376C56.6353 9.93714 56.5831 10.2429 56.5831 10.571C56.5831 10.8991 56.6353 11.2038 56.7397 11.4851C56.8441 11.7663 57.005 11.9933 57.2223 12.1658C57.4397 12.3384 57.7167 12.4247 58.0533 12.4247ZM65.2675 8.09091L63.4522 13H62.6851L60.8698 8.09091H61.688L63.0431 12.0028H63.0942L64.4494 8.09091H65.2675ZM67.5583 13.1151C67.2472 13.1151 66.9649 13.0565 66.7113 12.9393C66.4578 12.82 66.2564 12.6484 66.1073 12.4247C65.9581 12.1989 65.8836 11.9261 65.8836 11.6065C65.8836 11.3253 65.939 11.0973 66.0498 10.9226C66.1606 10.7457 66.3086 10.6072 66.494 10.5071C66.6794 10.407 66.8839 10.3324 67.1076 10.2834C67.3335 10.2322 67.5604 10.1918 67.7884 10.1619C68.0867 10.1236 68.3285 10.0948 68.5139 10.0756C68.7014 10.0543 68.8378 10.0192 68.923 9.97017C69.0103 9.92116 69.054 9.83594 69.054 9.71449V9.68892C69.054 9.37358 68.9677 9.12855 68.7951 8.95384C68.6247 8.77912 68.3658 8.69176 68.0185 8.69176C67.6584 8.69176 67.3761 8.7706 67.1716 8.92827C66.967 9.08594 66.8232 9.25426 66.7401 9.43324L66.0242 9.17756C66.152 8.87926 66.3225 8.64702 66.5356 8.48082C66.7508 8.3125 66.9851 8.19531 67.2387 8.12926C67.4944 8.06108 67.7458 8.02699 67.9929 8.02699C68.1506 8.02699 68.3317 8.04616 68.5363 8.08452C68.7429 8.12074 68.9422 8.19638 69.1339 8.31143C69.3278 8.42649 69.4887 8.60014 69.6165 8.83239C69.7444 9.06463 69.8083 9.37571 69.8083 9.76562V13H69.054V12.3352H69.0157C68.9645 12.4418 68.8793 12.5558 68.76 12.6772C68.6407 12.7987 68.4819 12.902 68.2838 12.9872C68.0856 13.0724 67.8438 13.1151 67.5583 13.1151ZM67.6733 12.4375C67.9716 12.4375 68.2231 12.3789 68.4276 12.2617C68.6343 12.1445 68.7898 11.9933 68.8942 11.8079C69.0008 11.6225 69.054 11.4276 69.054 11.223V10.5327C69.0221 10.571 68.9517 10.6062 68.8431 10.6381C68.7366 10.668 68.613 10.6946 68.4723 10.718C68.3339 10.7393 68.1986 10.7585 68.0665 10.7756C67.9365 10.7905 67.831 10.8033 67.75 10.8139C67.554 10.8395 67.3708 10.881 67.2003 10.9386C67.032 10.994 66.8956 11.0781 66.7912 11.1911C66.689 11.3018 66.6378 11.4531 66.6378 11.6449C66.6378 11.907 66.7348 12.1051 66.9287 12.2393C67.1247 12.3714 67.3729 12.4375 67.6733 12.4375ZM71.9392 6.45455V13H71.185V6.45455H71.9392Z" fill="#FFC043"/>
</svg>
